<svg viewBox="0 0 1032 1024" version="1.1" xmlns="http://www.w3.org/2000/svg">
  <path d="M224.9168 398.048c39.7488-125.5296 157.3104-216.7488 295.8816-216.7488 138.4704 0 256.032 91.2192 295.8768 216.7488h51.5616c-41.4384-153.1872-181.5024-266.2512-347.5248-266.2512-165.936 0-306 113.064-347.3424 266.2512h51.5472z" fill="#4887ED"></path>
  <path d="M205.5104 737.2352h-1.3056c-74.6256 0-135.288-60.6576-135.288-135.2832v-77.6256c0-74.6256 60.6624-135.288 135.288-135.288h1.2192c36.3744 0 65.8992 29.5296 65.8992 65.904v216.4704c0 36.288-29.5248 65.8224-65.8128 65.8224z" fill="#639DF6"></path>
  <path d="M204.2048 441.2672c-45.744 0-82.968 37.2192-82.968 82.968v77.6256c0 45.7488 37.224 82.968 82.968 82.968h1.3056a13.5696 13.5696 0 0 0 13.5024-13.5024V454.8608a13.608 13.608 0 0 0-13.5936-13.5936h-1.2144z" fill="#8EB7FE"></path>
  <path d="M834.0176 737.2352h-1.3056c-36.288 0-65.8128-29.5248-65.8128-65.8128V454.8608c0-36.3744 29.5248-65.8992 65.8992-65.8992h1.2192c74.6256 0 135.288 60.6576 135.288 135.2832v77.6304c0.0864 74.6112-60.6624 135.36-135.288 135.36z" fill="#639DF6"></path>
  <path d="M832.7984 441.2672a13.608 13.608 0 0 0-13.5936 13.5936v216.4752a13.5696 13.5696 0 0 0 13.5024 13.5024h1.3056c45.7488 0 82.968-37.2192 82.968-82.9632V524.24c0-45.744-37.2192-82.9632-82.968-82.9632h-1.2192v-0.0096z" fill="#8EB7FE"></path>
  <path d="M566.0816 877.5776h-4.776c-14.4432-0.1872-25.968-12.1008-25.7808-26.5296a26.1456 26.1456 0 0 1 26.1504-25.7808h0.3744c155.0688 2.256 248.3424-127.8768 249.288-129.1872a26.2512 26.2512 0 0 1 36.4704-6.3696 26.1456 26.1456 0 0 1 6.4704 36.3696c-4.512 6.1872-108.1056 151.4976-288.1968 151.4976z" fill="#4887ED"></path>
</svg>
