<svg viewBox="0 0 1024 1024" version="1.1" xmlns="http://www.w3.org/2000/svg">
  <path d="M744.727273 563.432727a80.523636 80.523636 0 0 1 4.189091 26.065455v82.618182a82.618182 82.618182 0 0 1-82.618182 82.850909h-81.92a82.618182 82.618182 0 0 1-82.618182-82.850909v-82.618182a87.272727 87.272727 0 0 1 3.956364-26.065455c-123.345455 33.047273-210.850909 116.363636-210.850909 212.247273V837.818182a83.083636 83.083636 0 0 0 82.618181 82.850909h496.64A83.083636 83.083636 0 0 0 956.741818 837.818182v-62.138182c0-96.581818-87.505455-179.2-211.083636-212.247273z m-119.854546 26.065455a41.425455 41.425455 0 0 0-41.425454 41.425454v41.192728a41.425455 41.425455 0 0 0 82.850909 0v-41.192728a41.425455 41.425455 0 0 0-12.101818-29.323636 42.123636 42.123636 0 0 0-28.392728-12.101818z m0-41.425455c114.269091 0 206.894545-101.934545 206.894546-227.374545S740.072727 93.090909 625.803636 93.090909 418.909091 195.025455 418.909091 320.698182s93.090909 227.374545 206.894545 227.374545z" fill="#3F58FD"></path>
  <path d="M205.265455 830.370909a83.316364 83.316364 0 0 1-11.403637-41.890909V726.109091c0-90.996364 82.850909-169.425455 202.24-205.963636a256 256 0 0 1-77.963636-186.181819A266.007273 266.007273 0 0 1 349.090909 209.454545c-86.109091 6.516364-154.298182 87.272727-154.298182 186.181819a193.396364 193.396364 0 0 0 73.076364 154.530909C152.436364 574.603636 69.818182 644.189091 69.818182 726.109091v62.836364a41.425455 41.425455 0 0 0 41.425454 41.425454z" fill="#3F58FD" opacity=".3"></path>
</svg>
